<?xml version="1.0" standalone="no"?>
<!DOCTYPE svg PUBLIC "-//W3C//DTD SVG 20010904//EN"
 "http://www.w3.org/TR/2001/REC-SVG-20010904/DTD/svg10.dtd">
<svg version="1.0" xmlns="http://www.w3.org/2000/svg"
 width="1024.000000pt" height="1024.000000pt" viewBox="0 0 1024.000000 1024.000000"
 preserveAspectRatio="xMidYMid meet">

<g transform="translate(0.000000,1024.000000) scale(0.100000,-0.100000)"
fill="#000000" stroke="none">
<path d="M4505 9271 c-41 -10 -115 -54 -147 -88 -63 -66 -91 -186 -68 -294 27
-125 109 -202 238 -221 l70 -10 -1 -1414 c-2 -1273 0 -1414 14 -1414 8 0 43 9
77 21 l62 21 0 1394 0 1394 213 2 c199 2 669 -2 674 -6 1 -1 5 -542 9 -1201 3
-660 7 -1200 7 -1201 1 -1 35 14 75 33 l72 35 0 1169 0 1168 38 6 c175 30 272
144 272 321 0 35 -7 83 -16 106 -22 55 -86 123 -149 156 l-50 27 -680 2 c-374
0 -694 -2 -710 -6z m1390 -192 c25 -23 49 -56 53 -73 11 -39 -3 -94 -31 -125
-47 -52 -39 -51 -723 -51 -700 0 -680 -2 -725 61 -32 45 -35 91 -9 136 45 79
36 77 390 83 173 3 469 7 658 8 l342 2 45 -41z"/>
<path d="M5575 9010 c-4 -22 -17 -54 -29 -72 l-22 -33 156 1 c209 2 199 0 212
29 8 18 8 32 -2 55 -22 54 -41 60 -181 60 l-127 0 -7 -40z"/>
<path d="M6189 8773 c11 -21 132 -88 128 -71 -2 12 28 19 50 11 8 -3 12 -12 9
-19 -3 -8 -1 -14 5 -14 6 0 9 -6 6 -14 -4 -9 5 -21 20 -31 24 -16 27 -16 56 5
16 13 27 18 23 12 -4 -6 3 -16 14 -22 11 -6 20 -17 20 -25 0 -8 5 -15 11 -15
5 0 7 5 4 10 -8 13 8 13 21 1 5 -5 18 -11 29 -13 11 -1 26 -9 34 -16 7 -7 19
-11 27 -8 7 3 18 -2 24 -10 7 -8 18 -14 26 -14 7 0 20 -7 28 -16 9 -8 22 -12
28 -8 7 4 10 4 6 0 -3 -4 24 -34 60 -66 220 -190 339 -394 402 -690 37 -171
31 -423 -13 -585 -6 -22 -33 -98 -60 -170 -92 -240 -251 -471 -482 -700 -167
-166 -234 -218 -565 -439 -131 -87 -450 -252 -610 -316 -85 -34 -202 -81 -260
-105 -149 -62 -339 -136 -380 -147 -60 -17 -486 -192 -665 -273 -303 -137
-474 -245 -602 -380 -93 -98 -136 -177 -152 -275 -5 -36 -12 -76 -15 -90 -5
-23 2 -31 52 -63 l57 -37 17 70 c10 39 25 87 35 108 41 89 175 233 290 310
216 144 542 293 1028 469 116 42 271 98 345 126 74 27 194 71 265 98 72 26
148 55 170 64 255 109 529 254 722 382 486 323 872 781 982 1165 54 188 63
261 59 472 -4 168 -8 204 -32 296 -32 123 -106 285 -173 379 -95 133 -344 352
-461 404 -15 7 -63 36 -106 65 -48 31 -133 72 -211 103 -71 27 -147 57 -168
66 -33 14 -40 15 -49 2 -8 -11 -9 -11 -5 3 6 16 -11 28 -39 28 -11 0 -12 -5
-5 -17z m451 -188 c7 -9 8 -15 2 -15 -5 0 -12 7 -16 15 -3 8 -4 15 -2 15 2 0
9 -7 16 -15z"/>
<path d="M6020 8607 c-19 -13 -48 -28 -65 -34 l-30 -10 -3 -1081 -2 -1082 72
52 c320 227 471 372 621 595 116 174 183 326 206 473 18 111 14 296 -9 386
-66 258 -319 523 -654 685 -44 22 -85 39 -91 39 -6 0 -26 -11 -45 -23z m313
-1041 c62 -25 107 -102 107 -182 0 -44 -49 -107 -99 -128 -56 -22 -98 -20
-151 7 -58 29 -90 77 -90 134 0 125 124 215 233 169z"/>
<path d="M6240 7493 c-8 -3 -27 -17 -42 -31 -69 -64 3 -171 98 -148 46 12 74
50 74 101 0 31 -4 45 -13 45 -8 0 -22 9 -32 20 -17 19 -53 25 -85 13z m27 -24
c14 -14 6 -37 -17 -49 -24 -13 -50 -3 -50 19 0 35 43 54 67 30z"/>
<path d="M6450 8620 c-8 -5 4 -18 34 -38 43 -29 65 -30 31 -2 -8 7 -15 18 -15
25 0 15 -33 25 -50 15z m35 -18 c-3 -3 -11 0 -18 7 -9 10 -8 11 6 5 10 -3 15
-9 12 -12z"/>
<path d="M4285 8596 c-91 -42 -258 -147 -390 -246 -274 -207 -467 -442 -639
-780 -104 -203 -193 -437 -211 -550 -4 -25 -13 -70 -21 -100 -44 -176 -57
-480 -29 -666 8 -54 22 -146 30 -204 22 -145 98 -422 126 -456 9 -11 18 -8 53
20 108 87 392 238 606 321 97 38 321 97 510 135 58 11 116 25 130 30 l25 10 0
1220 0 1220 -69 35 c-39 19 -70 35 -70 34 -1 0 -23 -10 -51 -23z m-376 -741
c147 -66 231 -246 186 -400 -21 -73 -85 -143 -168 -185 -109 -55 -245 -38
-348 44 -105 82 -144 218 -100 347 36 106 89 163 190 206 73 31 152 27 240
-12z m-557 -532 c29 -26 24 -79 -12 -114 -31 -32 -58 -33 -89 -4 -18 17 -6 67
26 105 28 34 48 37 75 13z m804 -181 c56 -30 90 -105 81 -180 -4 -39 -13 -53
-50 -89 -44 -41 -48 -43 -108 -43 -106 0 -159 52 -159 158 0 45 5 67 23 92 54
80 136 104 213 62z m-872 -63 c0 -64 -26 -103 -62 -94 -41 10 -52 24 -52 66 0
53 29 81 78 77 37 -3 37 -3 36 -49z"/>
<path d="M3740 7781 c-77 -24 -123 -69 -155 -153 -36 -96 -3 -190 88 -253 49
-34 66 -39 111 -39 79 0 164 45 194 104 28 56 30 147 3 206 -23 51 -96 111
-157 130 -52 15 -49 15 -84 5z m34 -63 c39 -56 -7 -138 -77 -138 -68 0 -82 69
-26 126 39 41 80 45 103 12z"/>
<path d="M4088 7062 c-7 -11 -23 -24 -36 -31 -13 -7 -32 -21 -42 -31 -17 -17
-17 -19 1 -48 30 -51 122 -53 148 -3 37 69 -28 173 -71 113z"/>
<path d="M5253 8310 c-21 -13 -36 -32 -44 -58 -16 -56 -2 -92 45 -116 32 -16
44 -17 77 -7 69 21 90 89 47 156 -33 49 -72 57 -125 25z"/>
<path d="M7843 8006 c-34 -15 -76 -73 -66 -89 3 -5 12 5 20 21 30 63 113 57
113 -8 0 -20 -9 -35 -29 -49 -33 -24 -52 -26 -69 -9 -8 8 -11 1 -9 -30 2 -35
0 -39 -14 -31 -10 5 -20 14 -22 21 -3 7 -6 4 -6 -7 -1 -25 26 -67 63 -96 37
-29 112 -37 154 -15 115 59 129 194 28 271 -42 32 -117 42 -163 21z"/>
<path d="M4875 7969 c5 -7 8 -472 6 -1033 -2 -844 0 -1018 11 -1013 67 28 138
56 288 111 96 36 214 83 263 106 l87 41 0 734 0 735 -42 0 c-78 1 -164 53
-313 188 -44 40 -107 86 -140 103 -67 33 -174 52 -160 28z m243 -355 c41 -29
14 -94 -40 -94 -9 0 -29 10 -44 23 -23 20 -25 26 -15 46 21 38 65 49 99 25z
m286 -185 c55 -44 19 -139 -53 -139 -77 0 -111 83 -55 135 33 30 73 32 108 4z
m-278 -227 c50 -40 56 -86 18 -131 -35 -42 -98 -44 -138 -5 -37 38 -35 77 8
120 38 38 78 44 112 16z m-6 -747 c86 -44 57 -165 -39 -165 -47 0 -101 39
-101 73 0 31 36 86 63 97 32 13 44 12 77 -5z"/>
<path d="M2834 7951 c-28 -12 -82 -76 -90 -105 -9 -37 29 -112 68 -136 100
-61 233 32 208 144 -13 59 -57 98 -117 102 -26 2 -57 0 -69 -5z m40 -34 c42
-31 -15 -107 -69 -93 -23 6 -26 11 -21 34 6 25 48 72 65 72 4 0 15 -6 25 -13z"/>
<path d="M7627 7480 c-4 -19 -12 -89 -17 -155 -22 -243 -77 -456 -164 -640
-40 -85 -144 -259 -200 -335 -132 -180 -537 -527 -796 -682 -116 -69 -407
-228 -474 -257 l-59 -27 2 -239 c2 -236 -9 -355 -39 -420 -5 -11 -18 -43 -28
-72 -30 -79 -105 -185 -180 -252 -50 -45 -64 -63 -56 -71 32 -32 356 63 576
168 128 61 320 178 454 277 92 69 321 289 409 395 215 260 364 571 439 920 32
153 69 380 61 380 -2 0 -20 -33 -41 -72 -46 -91 -144 -239 -228 -343 -67 -85
-284 -300 -332 -331 -16 -11 -78 -54 -137 -96 -60 -43 -147 -99 -194 -125 -95
-51 -229 -106 -246 -100 -11 3 112 95 229 170 244 155 487 370 653 577 102
127 135 178 200 307 147 294 219 685 182 993 -7 59 -8 62 -14 30z"/>
<path d="M7850 7390 c-25 -25 -26 -72 -2 -93 43 -39 120 -2 107 51 -7 32 -40
62 -66 62 -10 0 -28 -9 -39 -20z"/>
<path d="M7970 6857 c-34 -17 -50 -52 -39 -89 11 -39 36 -57 77 -58 44 0 72
30 72 78 0 43 -6 55 -37 71 -28 14 -42 14 -73 -2z"/>
<path d="M2618 6798 c-40 -33 -24 -78 28 -78 27 0 37 5 46 26 11 23 10 29 -11
45 -27 22 -41 24 -63 7z"/>
<path d="M2470 6372 c-19 -10 -48 -36 -65 -56 -27 -34 -30 -45 -30 -105 0 -56
4 -74 27 -108 48 -72 163 -107 234 -70 39 21 88 75 104 115 25 63 -7 163 -67
209 -46 36 -152 43 -203 15z m94 -56 c7 -28 -5 -66 -25 -83 -14 -11 -46 -16
-81 -14 -23 1 -24 41 -3 81 17 32 27 38 71 39 26 1 33 -4 38 -23z"/>
<path d="M7843 6255 c-32 -23 -35 -62 -5 -85 32 -26 63 -25 90 0 59 55 -17
132 -85 85z"/>
<path d="M4315 5974 c-122 -20 -409 -98 -515 -139 -169 -65 -370 -169 -490
-254 -185 -132 -213 -171 -283 -391 -88 -276 -116 -427 -100 -527 29 -185 73
-244 73 -100 0 95 30 207 86 330 79 172 124 230 189 240 31 5 58 23 120 77
178 160 505 347 815 467 63 24 147 57 185 72 l70 27 3 107 3 107 -38 -1 c-21
-1 -74 -7 -118 -15z m-294 -234 c-19 -16 -73 -45 -120 -65 -47 -20 -120 -55
-161 -77 -75 -41 -426 -271 -509 -334 -48 -37 -69 -42 -77 -19 -12 31 59 106
171 180 60 40 146 100 190 134 88 67 200 129 285 156 71 24 198 53 230 54 25
0 24 0 -9 -29z"/>
<path d="M7797 5820 c-73 -14 -148 -98 -161 -181 -7 -47 13 -123 48 -177 46
-73 162 -112 243 -81 115 43 172 156 137 275 -22 75 -80 135 -149 153 -72 19
-76 19 -118 11z m31 -72 c7 -7 12 -29 12 -50 0 -67 -65 -110 -112 -74 -35 26
-18 84 35 116 37 23 49 24 65 8z"/>
<path d="M2751 5609 c-80 -32 -61 -139 24 -139 72 0 104 86 49 129 -29 23 -38
24 -73 10z"/>
<path d="M5743 5309 c-23 -10 -53 -23 -67 -29 l-26 -10 0 -184 c0 -167 -2
-192 -26 -272 -33 -117 -62 -163 -137 -224 -89 -73 -158 -104 -238 -108 -240
-14 -454 155 -498 392 -6 33 -13 61 -16 64 -3 3 -22 -2 -42 -11 -21 -8 -50
-18 -65 -21 -25 -6 -28 -11 -28 -46 0 -22 13 -75 29 -118 91 -251 299 -407
557 -418 163 -7 278 36 402 151 87 80 144 173 185 300 29 88 29 94 28 290 -1
110 -5 214 -9 232 l-7 32 -42 -20z"/>
<path d="M5405 5177 c-66 -27 -165 -65 -220 -85 -55 -19 -136 -48 -180 -63
-44 -16 -90 -29 -102 -29 -22 0 -23 -4 -23 -75 0 -97 35 -171 112 -239 74 -65
142 -89 243 -84 93 4 146 26 213 91 77 75 100 190 85 418 l-8 115 -120 -49z"/>
<path d="M7375 5110 c-29 -11 -42 -30 -50 -72 -6 -32 -3 -41 19 -63 50 -49
126 -10 126 65 0 54 -48 89 -95 70z"/>
<path d="M4393 4795 c-136 -55 -324 -157 -321 -174 6 -29 292 -164 474 -224
171 -57 273 -80 261 -60 -4 6 -32 27 -62 47 -66 44 -138 126 -181 204 -33 63
-74 171 -74 200 -1 40 -13 41 -97 7z"/>
<path d="M3210 4018 c-14 -5 -91 -8 -172 -6 l-147 3 22 -23 c22 -24 22 -25 25
-524 3 -554 1 -575 -58 -635 -53 -54 -171 -65 -232 -21 -16 11 -41 43 -56 71
l-27 52 -3 504 c-3 467 -1 506 15 540 l18 36 -172 0 c-111 0 -169 -4 -165 -10
3 -5 14 -22 24 -37 17 -24 18 -57 18 -525 0 -308 4 -511 10 -533 6 -19 13 -48
15 -63 10 -51 62 -141 106 -182 88 -81 178 -115 308 -115 159 0 244 32 342
129 52 52 71 80 90 131 l24 65 1 536 c1 535 1 537 23 574 12 21 21 39 19 40
-2 2 -14 -2 -28 -7z"/>
<path d="M7413 3985 l37 -48 0 -639 c0 -678 1 -665 -46 -718 -11 -13 16 -15
234 -12 136 1 273 7 304 13 71 12 159 50 218 94 91 67 146 206 137 346 -8 137
-71 233 -191 290 l-58 28 38 19 c75 39 132 119 154 214 40 174 -61 355 -228
409 -59 20 -98 23 -332 29 -146 3 -274 10 -284 15 -14 6 -9 -6 17 -40z m498
-221 c57 -33 79 -77 79 -153 0 -50 -6 -76 -23 -106 -32 -57 -74 -75 -174 -75
l-83 0 0 181 0 182 83 -5 c59 -3 94 -10 118 -24z m36 -593 c49 -28 68 -59 81
-131 15 -80 0 -142 -47 -189 -46 -46 -85 -57 -188 -53 l-83 4 0 200 0 201 98
-5 c78 -4 107 -10 139 -27z"/>
<path d="M4189 3990 c14 -21 16 -81 19 -475 l2 -450 -39 95 c-21 52 -77 176
-124 275 -156 333 -225 480 -245 527 l-21 48 -144 -2 -145 -3 16 -30 c15 -27
17 -95 17 -692 l0 -661 -23 -32 c-13 -17 -22 -33 -20 -36 2 -2 22 1 44 7 22 7
88 10 156 7 l117 -4 -19 32 c-19 30 -20 51 -19 465 0 326 3 428 11 409 67
-150 255 -555 329 -707 l93 -193 143 0 144 0 -17 32 c-15 28 -16 93 -11 689 5
530 9 664 20 691 l14 33 -157 0 -157 0 16 -25z"/>
<path d="M4762 3975 l28 -40 0 -649 c0 -632 0 -650 -20 -688 -11 -21 -20 -40
-20 -41 0 -1 76 -1 170 1 93 2 170 5 170 8 0 3 -8 17 -17 31 -17 25 -18 72
-15 693 3 638 4 666 23 692 10 15 19 28 19 30 0 2 -82 3 -183 3 l-183 0 28
-40z"/>
<path d="M5359 3981 l26 -35 -4 -665 c-3 -634 -4 -667 -22 -693 -11 -14 -19
-28 -19 -31 0 -3 19 0 43 5 23 5 116 9 207 7 91 -1 230 -2 310 -1 l145 2 -2
107 c-1 60 -2 113 -3 118 0 7 -67 9 -197 7 l-198 -4 3 578 c2 534 4 581 21
609 l17 30 -176 0 -177 0 26 -34z"/>
<path d="M6530 3938 c-13 -76 -27 -136 -78 -328 -17 -63 -58 -221 -90 -350
-33 -129 -81 -316 -106 -415 -26 -99 -59 -205 -75 -236 l-28 -57 31 9 c17 5
84 9 148 9 114 0 118 1 122 23 3 12 16 76 30 142 14 66 29 131 34 145 l9 25
172 0 c164 0 172 -1 176 -20 3 -11 13 -60 24 -110 11 -49 25 -115 31 -147 l11
-56 142 -4 c78 -2 143 -3 145 -2 2 1 -3 13 -12 26 -18 27 -87 285 -141 523 -8
33 -28 112 -44 175 -61 228 -129 497 -150 595 -13 55 -24 106 -26 113 -3 9
-44 12 -158 12 l-154 0 -13 -72z m190 -388 c12 -58 24 -116 26 -130 3 -14 16
-70 29 -125 13 -55 27 -117 30 -137 l7 -38 -116 0 c-64 0 -116 4 -116 8 0 4 9
48 21 98 24 104 88 415 89 428 0 24 10 -8 30 -104z"/>
<path d="M3855 2241 c-22 -10 -48 -27 -58 -39 -21 -23 -34 -75 -29 -110 5 -32
76 -98 120 -113 80 -25 102 -58 64 -92 -23 -21 -68 -22 -106 -2 -15 8 -32 15
-37 15 -12 0 -49 -41 -49 -54 0 -19 86 -64 134 -71 80 -12 168 46 182 121 14
73 -19 117 -121 163 -77 35 -90 50 -69 79 19 27 78 30 112 6 13 -9 26 -13 30
-10 6 7 33 79 29 81 -1 1 -25 11 -54 23 -63 27 -96 27 -148 3z"/>
<path d="M4268 2200 c13 -30 44 -93 68 -141 43 -83 44 -87 44 -182 l0 -97 50
0 50 0 0 91 c0 85 2 94 34 148 18 32 52 97 74 145 l41 86 -49 0 -49 0 -48 -90
c-26 -49 -50 -90 -53 -90 -3 1 -24 41 -47 89 l-41 89 -49 3 -50 4 25 -55z"/>
<path d="M4880 2233 c-46 -28 -80 -79 -80 -122 0 -43 58 -105 118 -127 63 -23
90 -49 76 -72 -6 -9 -23 -23 -37 -30 -22 -11 -32 -10 -63 3 -47 20 -56 19 -82
-5 -30 -28 -28 -36 18 -66 75 -50 159 -49 219 1 36 31 64 98 56 136 -9 38 -64
85 -142 120 -35 15 -63 34 -63 42 0 42 84 62 128 31 13 -9 24 -14 25 -13 18
29 36 84 30 89 -20 17 -98 40 -129 38 -20 -1 -53 -13 -74 -25z"/>
<path d="M5323 2253 l-43 -4 0 -48 0 -48 54 5 53 4 8 -191 7 -191 42 0 43 0 6
122 c4 66 7 152 7 191 l0 69 50 -4 50 -3 0 53 0 52 -117 -2 c-65 -1 -137 -3
-160 -5z"/>
<path d="M5802 2020 l3 -235 138 -3 137 -3 0 51 0 50 -85 0 -85 0 0 50 0 50
71 0 70 0 -3 43 -3 42 -72 3 -73 3 0 29 c0 57 5 60 96 60 l84 0 0 49 0 48
-140 -1 -140 -1 2 -235z"/>
<path d="M6295 2244 c5 -10 10 -116 13 -234 2 -118 5 -216 6 -217 1 -1 22 -3
46 -5 l45 -3 3 135 3 135 46 -115 c53 -135 60 -145 94 -130 17 8 33 35 58 98
64 163 59 155 60 91 1 -31 4 -90 7 -132 l7 -77 46 0 46 0 0 231 0 231 -60 1
-60 0 -25 -66 c-58 -151 -85 -217 -91 -217 -4 0 -12 20 -18 45 -6 24 -30 87
-53 140 l-43 95 -45 0 c-25 0 -56 3 -69 7 -21 5 -23 4 -16 -13z"/>
<path d="M2342 2100 c-31 -13 -39 -40 -17 -57 16 -11 118 -13 573 -11 554 3
555 3 569 24 12 19 12 24 -2 38 -15 14 -72 16 -558 15 -302 0 -552 -4 -565 -9z"/>
<path d="M7092 2098 c-7 -7 -12 -19 -12 -28 0 -40 5 -40 577 -40 542 0 553 0
573 20 16 16 18 25 10 40 -10 20 -23 20 -573 20 -425 0 -566 -3 -575 -12z"/>
</g>
</svg>
